<svg xmlns="http://www.w3.org/2000/svg" width="1600" height="900" viewBox="0 0 1600 900" role="img" aria-labelledby="title desc"><title id="title">University AI Platform</title><desc id="desc">A shared institutional experience, with model access and controls in the gateway. Proposed platform · arrows show logical flow, not deployment boundaries</desc><defs><marker id="blue-arrow" viewBox="0 0 10 10" refX="9" refY="5" markerWidth="8" markerHeight="8" orient="auto-start-reverse"><path d="M0 0 L10 5 L0 10 Z" fill="#3266C7"/></marker><marker id="teal-arrow" viewBox="0 0 10 10" refX="9" refY="5" markerWidth="8" markerHeight="8" orient="auto-start-reverse"><path d="M0 0 L10 5 L0 10 Z" fill="#087D79"/></marker><marker id="purple-arrow" viewBox="0 0 10 10" refX="9" refY="5" markerWidth="8" markerHeight="8" orient="auto-start-reverse"><path d="M0 0 L10 5 L0 10 Z" fill="#7655BB"/></marker><marker id="amber-arrow" viewBox="0 0 10 10" refX="9" refY="5" markerWidth="8" markerHeight="8" orient="auto-start-reverse"><path d="M0 0 L10 5 L0 10 Z" fill="#A86414"/></marker></defs><g font-family="Arial, Helvetica, sans-serif"><rect width="1600" height="900" fill="#F7F8FC"/><g id="heading"><text x="64" y="53" font-size="18" fill="#596980" font-weight="700" text-anchor="start">AGENTIC AI  /  WORKING GROUP</text><text x="64" y="116" font-size="48" fill="#18263C" font-weight="700" text-anchor="start">University AI Platform</text><text x="66" y="159" font-size="25" fill="#596980" font-weight="400" text-anchor="start">A shared institutional experience, with model access and controls in the gateway.</text><rect x="1430" y="64" width="106" height="44" rx="22" fill="#EAF1FF" stroke="#3266C7" stroke-width="2"/><text x="1483.0" y="94" font-size="24" fill="#3266C7" font-weight="600" text-anchor="middle">09</text></g><g id="label-people"><text x="94" y="264" font-size="18" fill="#3266C7" font-weight="700" text-anchor="start">PEOPLE</text><text x="94" y="292" font-size="18" fill="#596980" font-weight="400" text-anchor="start">Teaching · research · services</text></g><g id="label-workspace"><text x="94" y="368" font-size="18" fill="#3266C7" font-weight="700" text-anchor="start">WORKSPACE</text><text x="94" y="396" font-size="18" fill="#596980" font-weight="400" text-anchor="start">A shared point of entry</text></g><g id="label-capabilities"><text x="94" y="470" font-size="18" fill="#7655BB" font-weight="700" text-anchor="start">CAPABILITIES</text><text x="94" y="498" font-size="18" fill="#596980" font-weight="400" text-anchor="start">Context and action</text></g><g id="label-gateway"><text x="94" y="600" font-size="18" fill="#A86414" font-weight="700" text-anchor="start">GATEWAY</text><text x="94" y="628" font-size="18" fill="#596980" font-weight="400" text-anchor="start">Model access and controls</text></g><g id="label-compute"><text x="94" y="766" font-size="18" fill="#7655BB" font-weight="700" text-anchor="start">COMPUTE</text><text x="94" y="794" font-size="18" fill="#596980" font-weight="400" text-anchor="start">Provider and model choice</text></g><g id="people"><rect x="435" y="230" width="1040" height="60" rx="22" fill="#EAF1FF" stroke="#3266C7" stroke-width="2"/><text x="955" y="270" font-size="28" fill="#3266C7" font-weight="600" text-anchor="middle">Students · faculty · researchers · staff</text></g><g id="people-to-workspace"><path d="M955 291 V331" fill="none" stroke="#3266C7" stroke-width="3" stroke-linejoin="round" stroke-linecap="round" marker-end="url(#blue-arrow)"/></g><g id="open-webui"><rect x="435" y="334" width="1040" height="60" rx="22" fill="#EAF1FF" stroke="#3266C7" stroke-width="2"/><text x="955" y="374" font-size="31" fill="#3266C7" font-weight="700" text-anchor="middle">Open WebUI</text></g><g id="workspace-to-agent"><path d="M955 395 V435" fill="none" stroke="#3266C7" stroke-width="3" stroke-linejoin="round" stroke-linecap="round" marker-end="url(#blue-arrow)"/></g><g id="knowledge"><path d="M435,438 H691 L715,462 V514 H435 Z M691,438 V462 H715" fill="#E6F5F1" stroke="#087D79" stroke-width="2" stroke-linejoin="round"/><text x="575" y="486" font-size="29" fill="#087D79" font-weight="700" text-anchor="middle">Knowledge</text></g><g id="agents"><path d="M839,438 H1071 L1095,476.0 L1071,514 H839 L815,476.0 Z" fill="#F1EBFB" stroke="#7655BB" stroke-width="2"/><text x="955" y="486" font-size="29" fill="#7655BB" font-weight="700" text-anchor="middle">Agents</text></g><g id="tools"><path d="M1213,438 H1457 L1475,456 V496 L1457,514 H1213 L1195,496 V456 Z" fill="#E6F5F1" stroke="#087D79" stroke-width="2"/><text x="1335" y="486" font-size="29" fill="#087D79" font-weight="700" text-anchor="middle">Tools</text></g><g id="agent-knowledge-loop"><path d="M718 476 H812" fill="none" stroke="#087D79" stroke-width="3" stroke-linejoin="round" stroke-linecap="round" stroke-dasharray="9 8" marker-start="url(#teal-arrow)" marker-end="url(#teal-arrow)"/></g><g id="agent-tools-loop"><path d="M1098 476 H1192" fill="none" stroke="#087D79" stroke-width="3" stroke-linejoin="round" stroke-linecap="round" stroke-dasharray="9 8" marker-start="url(#teal-arrow)" marker-end="url(#teal-arrow)"/></g><g id="agent-to-gateway"><path d="M955 515 V555" fill="none" stroke="#3266C7" stroke-width="3" stroke-linejoin="round" stroke-linecap="round" marker-end="url(#blue-arrow)"/></g><g id="bifrost"><rect x="435" y="558" width="1040" height="142" rx="22" fill="#FFF3DC" stroke="#A86414" stroke-width="2"/><text x="955" y="598" font-size="32" fill="#A86414" font-weight="700" text-anchor="middle">Bifrost</text><g id="institutional-controls"><text x="955" y="626" font-size="17" fill="#A86414" font-weight="700" text-anchor="middle">INSTITUTIONAL CONTROLS</text><g id="control-governance"><rect x="507" y="640" width="166" height="44" rx="22" fill="#FFFFFF" stroke="#A86414" stroke-width="2"/><text x="590.0" y="670" font-size="20" fill="#A86414" font-weight="600" text-anchor="middle">Governance</text></g><g id="control-privacy"><rect x="687" y="640" width="120" height="44" rx="22" fill="#FFFFFF" stroke="#A86414" stroke-width="2"/><text x="747.0" y="670" font-size="20" fill="#A86414" font-weight="600" text-anchor="middle">Privacy</text></g><g id="control-security"><rect x="821" y="640" width="132" height="44" rx="22" fill="#FFFFFF" stroke="#A86414" stroke-width="2"/><text x="887.0" y="670" font-size="20" fill="#A86414" font-weight="600" text-anchor="middle">Security</text></g><g id="control-cost"><rect x="967" y="640" width="90" height="44" rx="22" fill="#FFFFFF" stroke="#A86414" stroke-width="2"/><text x="1012.0" y="670" font-size="20" fill="#A86414" font-weight="600" text-anchor="middle">Cost</text></g><g id="control-access"><rect x="1071" y="640" width="114" height="44" rx="22" fill="#FFFFFF" stroke="#A86414" stroke-width="2"/><text x="1128.0" y="670" font-size="20" fill="#A86414" font-weight="600" text-anchor="middle">Access</text></g><g id="control-observability"><rect x="1199" y="640" width="204" height="44" rx="22" fill="#FFFFFF" stroke="#A86414" stroke-width="2"/><text x="1301.0" y="670" font-size="20" fill="#A86414" font-weight="600" text-anchor="middle">Observability</text></g></g></g><g id="gateway-to-compute"><path d="M955 701 V737" fill="none" stroke="#3266C7" stroke-width="3" stroke-linejoin="round" stroke-linecap="round" marker-end="url(#blue-arrow)"/></g><g id="providers-models"><rect x="435" y="740" width="1040" height="60" rx="22" fill="#F1EBFB" stroke="#7655BB" stroke-width="2"/><text x="459" y="764" font-size="17" fill="#7655BB" font-weight="700" text-anchor="start">PROVIDERS / MODELS</text><text x="459" y="788" font-size="20" fill="#596980" font-weight="400" text-anchor="start">Hosted or local</text><rect x="730" y="748" width="136" height="44" rx="22" fill="#F1EBFB" stroke="#7655BB" stroke-width="2"/><text x="798.0" y="778" font-size="23" fill="#7655BB" font-weight="600" text-anchor="middle">GPT</text><rect x="882" y="748" width="154" height="44" rx="22" fill="#F1EBFB" stroke="#7655BB" stroke-width="2"/><text x="959.0" y="778" font-size="23" fill="#7655BB" font-weight="600" text-anchor="middle">Claude</text><rect x="1052" y="748" width="154" height="44" rx="22" fill="#F1EBFB" stroke="#7655BB" stroke-width="2"/><text x="1129.0" y="778" font-size="23" fill="#7655BB" font-weight="600" text-anchor="middle">Gemini</text><rect x="1222" y="748" width="226" height="44" rx="22" fill="#F1EBFB" stroke="#7655BB" stroke-width="2"/><text x="1335.0" y="778" font-size="23" fill="#7655BB" font-weight="600" text-anchor="middle">Qwen / others</text></g><g id="footer"><path d="M64 816 H1536" stroke="#C9D3E1"/><path d="M66 851 H111" fill="none" stroke="#3266C7" stroke-width="3" stroke-linejoin="round" stroke-linecap="round" marker-end="url(#blue-arrow)"/><text x="126" y="859" font-size="18" fill="#596980" font-weight="400" text-anchor="start">Flow</text><path d="M210 851 H255" fill="none" stroke="#087D79" stroke-width="3" stroke-linejoin="round" stroke-linecap="round" stroke-dasharray="9 8" marker-start="url(#teal-arrow)" marker-end="url(#teal-arrow)"/><text x="270" y="859" font-size="18" fill="#596980" font-weight="400" text-anchor="start">Feedback / context</text><text x="660" y="859" font-size="18" fill="#596980" font-weight="400" text-anchor="start">Proposed platform · arrows show logical flow, not deployment boundaries</text><text x="1536" y="859" font-size="18" fill="#596980" font-weight="600" text-anchor="end">09</text></g></g></svg>